STARTFONT 2.1
FONT -Adobe-Helvetica-Bold-O-Narrow--25-180-100-100-P-116-ISO8859-1
SIZE 18 100 100
FONTBOUNDINGBOX 26 24 -3 -5

STARTPROPERTIES 26
_DEC_DEVICE_FONTNAMES "PS=Helvetica-Narrow-BoldOblique"
FONTNAME_REGISTRY ""
FAMILY_NAME "Helvetica"
FOUNDRY "Adobe"
WEIGHT_NAME "Bold"
SLANT "O"
SETWIDTH_NAME "Narrow"
ADD_STYLE_NAME ""
PIXEL_SIZE 25
POINT_SIZE 180
RESOLUTION_X 100
RESOLUTION_Y 100
SPACING "P"
AVERAGE_WIDTH 116
CHARSET_REGISTRY "ISO8859"
CHARSET_ENCODING "1"
CHARSET_COLLECTIONS "ASCII ISO8859-1 ADOBE-STANDARD"
FULL_NAME "Helvetica Narrow Bold Oblique"
COPYRIGHT "Copyright (c) 1991 Adobe Systems, Inc."
CAP_HEIGHT 19
X_HEIGHT 14
WEIGHT 10
QUAD_WIDTH 13
DEFAULT_CHAR 0
FONT_DESCENT 5
FONT_ASCENT 19
ENDPROPERTIES

CHARS 190

STARTCHAR space
ENCODING 32
SWIDTH 228 0
DWIDTH 6 0
BBX 1 1 0 0
BITMAP
00
ENDCHAR

STARTCHAR exclam
ENCODING 33
SWIDTH 273 0
DWIDTH 7 0
BBX 6 19 2 0
BITMAP
1C
1C
1C
1C
1C
38
38
38
38
38
70
70
70
70
70
00
E0
E0
E0
ENDCHAR

STARTCHAR quotedbl
ENCODING 34
SWIDTH 389 0
DWIDTH 7 0
BBX 7 6 3 13
BITMAP
EE
EE
CC
CC
88
88
ENDCHAR

STARTCHAR numbersign
ENCODING 35
SWIDTH 456 0
DWIDTH 12 0
BBX 13 19 1 0
BITMAP
0738
0738
0738
0E70
0E70
7FF8
7FF8
1CE0
1CE0
39C0
39C0
FFF0
FFF0
7380
7380
7380
E700
E700
E700
ENDCHAR

STARTCHAR dollar
ENCODING 36
SWIDTH 456 0
DWIDTH 12 0
BBX 13 21 1 -2
BITMAP
0180
07E0
1FF0
1FF8
3DB8
39B8
3B00
3F00
1F00
0F80
07C0
07E0
06E0
E6E0
ECE0
EDE0
7FC0
7FC0
3F00
1800
1800
ENDCHAR

STARTCHAR percent
ENCODING 37
SWIDTH 729 0
DWIDTH 18 0
BBX 14 19 3 0
BITMAP
1C0C
3E18
6318
C330
C360
C660
7CC0
3980
0180
0300
0600
0670
0CF8
198C
1B0C
330C
6318
61F0
C0E0
ENDCHAR

STARTCHAR ampersand
ENCODING 38
SWIDTH 592 0
DWIDTH 15 0
BBX 14 19 1 0
BITMAP
01E0
07F0
07F8
0F38
0E38
0E70
0FF0
07E0
0F80
1F80
3BDC
71DC
71F8
E0F8
E0F0
F1E0
7FF0
7FB8
1F18
ENDCHAR

STARTCHAR quoteright
ENCODING 39
SWIDTH 228 0
DWIDTH 5 0
BBX 4 6 3 13
BITMAP
70
70
70
30
60
C0
ENDCHAR

STARTCHAR parenleft
ENCODING 40
SWIDTH 273 0
DWIDTH 7 0
BBX 8 24 2 -5
BITMAP
03
07
06
0E
0C
1C
18
38
38
30
70
70
70
E0
E0
E0
E0
E0
E0
E0
60
70
30
18
ENDCHAR

STARTCHAR parenright
ENCODING 41
SWIDTH 273 0
DWIDTH 7 0
BBX 8 24 -1 -5
BITMAP
18
0C
0E
06
07
07
07
07
07
07
07
0E
0E
0E
0C
1C
1C
18
38
30
70
60
E0
C0
ENDCHAR

STARTCHAR asterisk
ENCODING 42
SWIDTH 319 0
DWIDTH 8 0
BBX 9 7 2 12
BITMAP
0C00
6D80
7F80
1C00
7E00
E700
4200
ENDCHAR

STARTCHAR plus
ENCODING 43
SWIDTH 479 0
DWIDTH 12 0
BBX 10 13 2 0
BITMAP
0E00
0E00
0E00
0E00
0E00
FFC0
FFC0
FFC0
1C00
1C00
1C00
1C00
1C00
ENDCHAR

STARTCHAR comma
ENCODING 44
SWIDTH 228 0
DWIDTH 6 0
BBX 4 6 0 -3
BITMAP
70
70
70
30
60
C0
ENDCHAR

STARTCHAR minus
ENCODING 45
SWIDTH 479 0
DWIDTH 15 0
BBX 11 3 3 5
BITMAP
FFE0
FFE0
FFE0
ENDCHAR

STARTCHAR period
ENCODING 46
SWIDTH 228 0
DWIDTH 6 0
BBX 3 3 1 0
BITMAP
E0
E0
E0
ENDCHAR

STARTCHAR slash
ENCODING 47
SWIDTH 228 0
DWIDTH 6 0
BBX 12 23 -2 -4
BITMAP
0030
0030
0070
0060
00E0
00C0
01C0
0180
0380
0300
0700
0600
0E00
0C00
1C00
1800
3800
3000
7000
6000
E000
C000
C000
ENDCHAR

STARTCHAR zero
ENCODING 48
SWIDTH 456 0
DWIDTH 12 0
BBX 13 19 1 0
BITMAP
03C0
0FF0
0FF0
1E78
1C38
3838
3838
3870
7070
7070
7070
70E0
E0E0
E0E0
E1C0
F3C0
7F80
7F80
1E00
ENDCHAR

STARTCHAR one
ENCODING 49
SWIDTH 456 0
DWIDTH 12 0
BBX 7 19 4 0
BITMAP
0E
0E
1E
FE
FE
FC
1C
1C
1C
38
38
38
38
38
70
70
70
70
70
ENDCHAR

STARTCHAR two
ENCODING 50
SWIDTH 456 0
DWIDTH 12 0
BBX 13 19 1 0
BITMAP
03C0
0FF0
1FF0
1C78
3838
3838
3838
0070
00F0
01E0
07C0
0F80
1E00
3C00
7800
7000
FFC0
FFC0
FFC0
ENDCHAR

STARTCHAR three
ENCODING 51
SWIDTH 456 0
DWIDTH 12 0
BBX 13 19 1 0
BITMAP
03C0
0FF0
1FF0
1C78
3838
3838
0070
00F0
07E0
07C0
07C0
01E0
00E0
E0E0
E0E0
F1C0
7FC0
7F80
1E00
ENDCHAR

STARTCHAR four
ENCODING 52
SWIDTH 456 0
DWIDTH 12 0
BBX 12 19 0 0
BITMAP
0070
0070
00F0
01F0
01F0
03E0
07E0
0EE0
0CE0
1DC0
39C0
71C0
7FF0
FFF0
FFF0
0380
0380
0380
0380
ENDCHAR

STARTCHAR five
ENCODING 53
SWIDTH 456 0
DWIDTH 12 0
BBX 12 19 1 0
BITMAP
0FF0
0FF0
0FF0
1C00
1C00
1800
1B80
3FE0
3FE0
38F0
0070
0070
0070
E0E0
E0E0
F1C0
7FC0
7F80
1E00
ENDCHAR

STARTCHAR six
ENCODING 54
SWIDTH 456 0
DWIDTH 12 0
BBX 13 19 1 0
BITMAP
03C0
0FF0
0FF0
1E78
1C38
3838
3800
3700
7FC0
7FC0
71E0
60E0
E0E0
E0E0
E0E0
F1C0
7FC0
7F80
1E00
ENDCHAR

STARTCHAR seven
ENCODING 55
SWIDTH 456 0
DWIDTH 12 0
BBX 11 19 3 0
BITMAP
FFE0
FFE0
FFE0
00E0
01C0
0380
0700
0700
0E00
1C00
1C00
3800
3800
7000
7000
7000
E000
E000
E000
ENDCHAR

STARTCHAR eight
ENCODING 56
SWIDTH 456 0
DWIDTH 12 0
BBX 13 19 1 0
BITMAP
03C0
0FF0
1FF0
1C78
3838
3838
3870
1CF0
1FE0
0F80
3FC0
79E0
70E0
E0E0
E0E0
F1C0
7FC0
7F80
1E00
ENDCHAR

STARTCHAR nine
ENCODING 57
SWIDTH 456 0
DWIDTH 12 0
BBX 13 19 1 0
BITMAP
03C0
0FF0
1FF0
1C78
3838
3838
3838
3830
3C70
1FF0
1FF0
0760
00E0
E0E0
E1C0
F3C0
7F80
7F80
1E00
ENDCHAR

STARTCHAR colon
ENCODING 58
SWIDTH 273 0
DWIDTH 7 0
BBX 5 13 2 0
BITMAP
38
38
38
00
00
00
00
00
00
00
E0
E0
E0
ENDCHAR

STARTCHAR semicolon
ENCODING 59
SWIDTH 273 0
DWIDTH 7 0
BBX 6 16 1 -3
BITMAP
1C
1C
1C
00
00
00
00
00
00
00
70
70
70
30
60
C0
ENDCHAR

STARTCHAR less
ENCODING 60
SWIDTH 479 0
DWIDTH 12 0
BBX 12 12 1 1
BITMAP
0030
00F0
03F0
0FC0
3F00
FC00
F000
FC00
3F00
0FC0
03C0
00C0
ENDCHAR

STARTCHAR equal
ENCODING 61
SWIDTH 479 0
DWIDTH 12 0
BBX 11 8 1 3
BITMAP
7FE0
7FE0
7FE0
0000
0000
FFC0
FFC0
FFC0
ENDCHAR

STARTCHAR greater
ENCODING 62
SWIDTH 479 0
DWIDTH 12 0
BBX 12 12 1 1
BITMAP
3000
3C00
3F00
0FC0
03F0
00F0
03F0
0FC0
3F00
FC00
F000
C000
ENDCHAR

STARTCHAR question
ENCODING 63
SWIDTH 501 0
DWIDTH 11 0
BBX 10 19 3 0
BITMAP
1F00
7F80
7FC0
F1C0
E1C0
E1C0
0380
0780
0F00
1E00
1C00
3800
3800
3800
0000
0000
7000
7000
7000
ENDCHAR

STARTCHAR at
ENCODING 64
SWIDTH 800 0
DWIDTH 21 0
BBX 22 23 0 -4
BITMAP
001F80
007FE0
01FFF0
03E078
078038
0E1D9C
1E7F9C
1CFF9C
39E39C
39C71C
738738
738E38
770E38
E71E70
E73C70
E7FCE0
E3EFC0
E1C700
700000
780E00
3FFE00
1FFC00
07F000
ENDCHAR

STARTCHAR A
ENCODING 65
SWIDTH 592 0
DWIDTH 15 0
BBX 13 19 1 0
BITMAP
01E0
01E0
03E0
03E0
03E0
07E0
07E0
0E70
0E70
1E70
1C70
1C70
3FF0
3FF8
7FF8
7038
7038
E038
E038
ENDCHAR

STARTCHAR B
ENCODING 66
SWIDTH 592 0
DWIDTH 15 0
BBX 14 19 2 0
BITMAP
1FE0
1FF8
1FF8
1C3C
1C1C
381C
3838
3FF8
3FF0
3FE0
70F0
7070
7070
6070
E070
E0E0
FFE0
FFC0
FF00
ENDCHAR

STARTCHAR C
ENCODING 67
SWIDTH 592 0
DWIDTH 14 0
BBX 14 19 2 0
BITMAP
03E0
0FF8
1FF8
1E3C
381C
381C
7000
7000
7000
E000
E000
E000
E000
E070
E070
F1E0
7FE0
7FC0
1F00
ENDCHAR

STARTCHAR D
ENCODING 68
SWIDTH 592 0
DWIDTH 16 0
BBX 14 19 2 0
BITMAP
1FE0
1FF8
1FF8
1C3C
1C1C
3C1C
381C
381C
381C
381C
7038
7038
7038
7070
E070
E1E0
FFE0
FFC0
FF00
ENDCHAR

STARTCHAR E
ENCODING 69
SWIDTH 547 0
DWIDTH 13 0
BBX 13 19 2 0
BITMAP
1FF8
1FF8
1FF8
1C00
1C00
3800
3800
3800
3FE0
7FE0
7FE0
7000
7000
6000
E000
E000
FFC0
FFC0
FFC0
ENDCHAR

STARTCHAR F
ENCODING 70
SWIDTH 501 0
DWIDTH 12 0
BBX 13 19 2 0
BITMAP
1FF8
1FF8
1FF8
1C00
1C00
3C00
3800
3800
3FE0
7FE0
7FE0
7000
7000
7000
E000
E000
E000
E000
E000
ENDCHAR

STARTCHAR G
ENCODING 71
SWIDTH 638 0
DWIDTH 16 0
BBX 15 19 2 0
BITMAP
03F0
0FFC
1FFC
1E1E
380E
380E
7000
7000
7000
E0FC
E1FC
E1FC
E038
E038
E078
F0F8
7FF0
7FB0
1F30
ENDCHAR

STARTCHAR H
ENCODING 72
SWIDTH 592 0
DWIDTH 15 0
BBX 14 19 2 0
BITMAP
1C1C
1C1C
1C1C
1C1C
1C1C
3838
3838
3838
3FF8
7FF8
7FF0
7070
7070
7070
E0E0
E0E0
E0E0
E0E0
E0E0
ENDCHAR

STARTCHAR I
ENCODING 73
SWIDTH 228 0
DWIDTH 7 0
BBX 6 19 2 0
BITMAP
1C
1C
1C
1C
1C
38
38
38
38
78
70
70
70
70
E0
E0
E0
E0
E0
ENDCHAR

STARTCHAR J
ENCODING 74
SWIDTH 456 0
DWIDTH 10 0
BBX 12 19 0 0
BITMAP
0070
0070
0070
0070
00E0
00E0
00E0
00E0
01C0
01C0
01C0
01C0
E380
E380
E380
E380
FF00
7F00
3E00
ENDCHAR

STARTCHAR K
ENCODING 75
SWIDTH 592 0
DWIDTH 13 0
BBX 14 19 2 0
BITMAP
1C3C
1C38
1C78
1CF0
1CE0
39E0
3BC0
3B80
3F80
3F00
7F00
7F80
7B80
73C0
F1C0
E1C0
E1E0
E0E0
E0F0
ENDCHAR

STARTCHAR L
ENCODING 76
SWIDTH 501 0
DWIDTH 12 0
BBX 10 19 2 0
BITMAP
1C00
1C00
1C00
1C00
1C00
3800
3800
3800
3800
7800
7000
7000
7000
7000
E000
E000
FFC0
FFC0
FFC0
ENDCHAR

STARTCHAR M
ENCODING 77
SWIDTH 683 0
DWIDTH 19 0
BBX 18 19 2 0
BITMAP
1E03C0
1E03C0
1E07C0
1E07C0
1E0FC0
3E0F80
3E1F80
3F1F80
373B80
373B80
777700
777700
73E700
73E700
E3CE00
E3CE00
E38E00
E38E00
E38E00
ENDCHAR

STARTCHAR N
ENCODING 78
SWIDTH 592 0
DWIDTH 16 0
BBX 15 19 2 0
BITMAP
1E0E
1E0E
1E0E
1E0E
1F0E
3F1C
3F1C
3B1C
3B9C
739C
73B8
71B8
71F8
71F8
E1F0
E0F0
E0F0
E0F0
E0F0
ENDCHAR

STARTCHAR O
ENCODING 79
SWIDTH 638 0
DWIDTH 16 0
BBX 15 19 2 0
BITMAP
03F0
0FFC
1FFC
1E1E
380E
380E
700E
700E
700E
E00E
E01C
E01C
E01C
E038
E038
F0F0
7FF0
7FE0
1F80
ENDCHAR

STARTCHAR P
ENCODING 80
SWIDTH 547 0
DWIDTH 14 0
BBX 14 19 2 0
BITMAP
1FE0
1FF8
1FF8
1C3C
1C1C
381C
381C
3838
3FF8
7FF0
7F80
7000
7000
7000
E000
E000
E000
E000
E000
ENDCHAR

STARTCHAR Q
ENCODING 81
SWIDTH 638 0
DWIDTH 16 0
BBX 15 20 2 -1
BITMAP
03F0
0FFC
1FFC
1E1E
380E
380E
700E
700E
700E
E00E
E01C
E01C
E01C
E1B8
E3F8
F1F0
7FE0
7FF0
1F70
0020
ENDCHAR

STARTCHAR R
ENCODING 82
SWIDTH 592 0
DWIDTH 16 0
BBX 15 19 2 0
BITMAP
1FF0
1FFC
1FFC
1C1E
1C0E
380E
380E
381C
3FFC
7FF8
7FE0
7070
7038
7038
E038
E030
E070
E070
E070
ENDCHAR

STARTCHAR S
ENCODING 83
SWIDTH 547 0
DWIDTH 13 0
BBX 14 19 1 0
BITMAP
03E0
0FF8
1FF8
1C3C
381C
381C
3800
1C00
1F00
0FC0
03E0
00E0
0070
E070
E070
F0E0
7FE0
7FC0
1F00
ENDCHAR

STARTCHAR T
ENCODING 84
SWIDTH 501 0
DWIDTH 11 0
BBX 11 19 3 0
BITMAP
FFE0
FFE0
FFE0
0E00
0E00
0E00
1C00
1C00
1C00
1C00
3800
3800
3800
3800
7000
7000
7000
7000
7000
ENDCHAR

STARTCHAR U
ENCODING 85
SWIDTH 592 0
DWIDTH 16 0
BBX 15 19 2 0
BITMAP
1C0E
1C0E
1C0E
1C0E
381C
381C
381C
381C
7038
7038
7038
7038
E070
E070
E070
F0F0
7FE0
7FE0
1F80
ENDCHAR

STARTCHAR V
ENCODING 86
SWIDTH 547 0
DWIDTH 13 0
BBX 13 19 3 0
BITMAP
E038
E038
E070
E070
E070
E0E0
70E0
71C0
71C0
71C0
7380
7380
3F00
3F00
3E00
3E00
3E00
3C00
3C00
ENDCHAR

STARTCHAR W
ENCODING 87
SWIDTH 774 0
DWIDTH 21 0
BBX 19 19 4 0
BITMAP
E0E0E0
E0E0E0
E0E0E0
E0E1C0
E1E1C0
E1E380
E3E380
E3E380
E76700
E76700
EE6700
EE6E00
FC6E00
FC7C00
F87C00
F87C00
F07800
F07800
F07800
ENDCHAR

STARTCHAR X
ENCODING 88
SWIDTH 547 0
DWIDTH 15 0
BBX 16 19 1 0
BITMAP
1E0F
1E0F
0E1E
0E1C
0F3C
0738
0770
07E0
03E0
03C0
07C0
07E0
0EE0
1CE0
3CF0
3870
7870
F078
F078
ENDCHAR

STARTCHAR Y
ENCODING 89
SWIDTH 547 0
DWIDTH 13 0
BBX 13 19 3 0
BITMAP
E038
E038
E070
70E0
70E0
71C0
3B80
3B80
3F00
1E00
1E00
1C00
1C00
1C00
3800
3800
3800
3800
3800
ENDCHAR

STARTCHAR Z
ENCODING 90
SWIDTH 501 0
DWIDTH 14 0
BBX 15 19 1 0
BITMAP
0FFE
0FFE
0FFE
003C
0038
0070
00F0
01E0
01C0
0380
0780
0F00
1E00
1C00
3800
7800
FFF0
FFF0
FFF0
ENDCHAR

STARTCHAR bracketleft
ENCODING 91
SWIDTH 273 0
DWIDTH 7 0
BBX 9 24 1 -5
BITMAP
0F80
0F80
0E00
0E00
0E00
1C00
1C00
1C00
1C00
3C00
3800
3800
3800
3800
7000
7000
7000
7000
7000
E000
E000
E000
F800
F800
ENDCHAR

STARTCHAR backslash
ENCODING 92
SWIDTH 228 0
DWIDTH 5 0
BBX 4 19 2 0
BITMAP
C0
C0
C0
C0
C0
C0
E0
60
60
60
60
60
70
30
30
30
30
30
30
ENDCHAR

STARTCHAR bracketright
ENCODING 93
SWIDTH 273 0
DWIDTH 7 0
BBX 9 24 -1 -5
BITMAP
0F80
0F80
0380
0380
0380
0700
0700
0700
0700
0F00
0E00
0E00
0E00
0E00
1C00
1C00
1C00
1C00
1C00
3800
3800
3800
F800
F800
ENDCHAR

STARTCHAR asciicircum
ENCODING 94
SWIDTH 479 0
DWIDTH 12 0
BBX 8 9 4 10
BITMAP
0E
1E
1E
3E
36
77
63
E3
C3
ENDCHAR

STARTCHAR underscore
ENCODING 95
SWIDTH 456 0
DWIDTH 11 0
BBX 11 2 -1 -4
BITMAP
FFE0
FFE0
ENDCHAR

STARTCHAR quoteleft
ENCODING 96
SWIDTH 228 0
DWIDTH 5 0
BBX 4 6 3 13
BITMAP
30
60
C0
E0
E0
E0
ENDCHAR

STARTCHAR a
ENCODING 97
SWIDTH 456 0
DWIDTH 12 0
BBX 11 14 1 0
BITMAP
0F80
1FC0
3FE0
38E0
00E0
03E0
1FC0
7DC0
71C0
E380
E380
FF80
FFC0
79C0
ENDCHAR

STARTCHAR b
ENCODING 98
SWIDTH 501 0
DWIDTH 12 0
BBX 12 19 1 0
BITMAP
1C00
1C00
1C00
1C00
1C00
3B80
3FE0
3FE0
38F0
7070
7070
7070
70E0
60E0
E0E0
E1C0
FFC0
FF80
DE00
ENDCHAR

STARTCHAR c
ENCODING 99
SWIDTH 456 0
DWIDTH 12 0
BBX 12 14 1 0
BITMAP
0780
1FE0
3FE0
38F0
7070
7000
7000
E000
E000
E0E0
F1E0
7FC0
7F80
1E00
ENDCHAR

STARTCHAR d
ENCODING 100
SWIDTH 501 0
DWIDTH 12 0
BBX 13 19 1 0
BITMAP
0038
0038
0038
0038
0038
0770
1FF0
3FF0
38F0
7060
7060
70E0
E0E0
E0E0
E1C0
F1C0
7FC0
7FC0
1EC0
ENDCHAR

STARTCHAR e
ENCODING 101
SWIDTH 456 0
DWIDTH 12 0
BBX 12 14 1 0
BITMAP
0780
1FE0
3FE0
38F0
7070
7070
7FF0
FFE0
E000
E0E0
F1E0
7FC0
7F80
1E00
ENDCHAR

STARTCHAR f
ENCODING 102
SWIDTH 273 0
DWIDTH 7 0
BBX 8 19 2 0
BITMAP
07
0F
1F
1C
1C
7E
7E
7E
38
38
38
70
70
70
70
E0
E0
E0
E0
ENDCHAR

STARTCHAR g
ENCODING 103
SWIDTH 501 0
DWIDTH 12 0
BBX 12 19 1 -5
BITMAP
07B0
1FF0
3FF0
38F0
7070
7060
70E0
E0E0
E0E0
E0C0
F1C0
7FC0
7FC0
1DC0
0380
E380
FF00
7F00
3C00
ENDCHAR

STARTCHAR h
ENCODING 104
SWIDTH 501 0
DWIDTH 12 0
BBX 12 19 1 0
BITMAP
1C00
1C00
1C00
1C00
1C00
3BC0
3FE0
3FF0
3CF0
3870
7870
70E0
70E0
70E0
F0E0
E1C0
E1C0
E1C0
E1C0
ENDCHAR

STARTCHAR i
ENCODING 105
SWIDTH 228 0
DWIDTH 7 0
BBX 6 19 2 0
BITMAP
1C
1C
1C
00
00
38
38
38
38
70
70
70
70
70
E0
E0
E0
E0
E0
ENDCHAR

STARTCHAR j
ENCODING 106
SWIDTH 228 0
DWIDTH 7 0
BBX 9 24 -1 -5
BITMAP
0380
0380
0380
0000
0000
0700
0700
0700
0700
0700
0E00
0E00
0E00
0E00
1C00
1C00
1C00
1C00
1C00
3800
3800
7800
F000
E000
ENDCHAR

STARTCHAR k
ENCODING 107
SWIDTH 456 0
DWIDTH 11 0
BBX 12 19 1 0
BITMAP
1C00
1C00
1C00
1C00
1C00
3870
38E0
39C0
3B80
3F00
7E00
7F00
7700
7700
E380
E380
E380
E1C0
E1C0
ENDCHAR

STARTCHAR l
ENCODING 108
SWIDTH 228 0
DWIDTH 7 0
BBX 6 19 2 0
BITMAP
1C
1C
1C
1C
1C
38
38
38
38
70
70
70
70
70
E0
E0
E0
E0
E0
ENDCHAR

STARTCHAR m
ENCODING 109
SWIDTH 729 0
DWIDTH 19 0
BBX 19 14 1 0
BITMAP
33C780
37EFC0
3FFFE0
3CF9E0
3870E0
7870E0
70E1C0
70E1C0
70E1C0
70E1C0
E1C380
E1C380
E1C380
E1C380
ENDCHAR

STARTCHAR n
ENCODING 110
SWIDTH 501 0
DWIDTH 12 0
BBX 12 14 1 0
BITMAP
33C0
37E0
3FF0
3CF0
3870
7870
70E0
70E0
70E0
F0E0
E1C0
E1C0
E1C0
E1C0
ENDCHAR

STARTCHAR o
ENCODING 111
SWIDTH 501 0
DWIDTH 12 0
BBX 12 14 1 0
BITMAP
0780
1FE0
3FE0
38F0
7070
7070
7070
E0E0
E0E0
E0E0
F1C0
7FC0
7F80
1E00
ENDCHAR

STARTCHAR p
ENCODING 112
SWIDTH 501 0
DWIDTH 12 0
BBX 13 19 0 -5
BITMAP
1BC0
1FF0
1FF0
1C78
1C38
3838
3838
3870
3070
7070
78E0
7FE0
7FC0
7700
E000
E000
E000
E000
E000
ENDCHAR

STARTCHAR q
ENCODING 113
SWIDTH 501 0
DWIDTH 12 0
BBX 12 19 1 -5
BITMAP
07B0
1FF0
3FF0
38F0
7070
7060
70E0
E0E0
E0E0
E1C0
F1C0
7FC0
7FC0
1DC0
0380
0380
0380
0380
0380
ENDCHAR

STARTCHAR r
ENCODING 114
SWIDTH 319 0
DWIDTH 7 0
BBX 8 14 1 0
BITMAP
37
3F
3F
3C
38
38
70
70
70
70
E0
E0
E0
E0
ENDCHAR

STARTCHAR s
ENCODING 115
SWIDTH 456 0
DWIDTH 11 0
BBX 11 14 1 0
BITMAP
0F80
3FC0
3FE0
70E0
70E0
7800
3E00
0F80
03C0
E1C0
E1C0
FF80
7F80
3E00
ENDCHAR

STARTCHAR t
ENCODING 116
SWIDTH 273 0
DWIDTH 8 0
BBX 7 18 2 0
BITMAP
1C
1C
1C
1C
7E
7E
7E
38
38
70
70
70
70
E0
E0
F8
F8
78
ENDCHAR

STARTCHAR u
ENCODING 117
SWIDTH 501 0
DWIDTH 12 0
BBX 12 14 1 0
BITMAP
3870
3870
3870
3870
70F0
70E0
70E0
70E0
E1E0
E1C0
F3C0
FFC0
7EC0
3CC0
ENDCHAR

STARTCHAR v
ENCODING 118
SWIDTH 456 0
DWIDTH 11 0
BBX 11 14 2 0
BITMAP
E0E0
E0E0
E1C0
E1C0
7380
7380
7700
7700
7E00
7E00
3C00
3C00
3800
3800
ENDCHAR

STARTCHAR w
ENCODING 119
SWIDTH 638 0
DWIDTH 15 0
BBX 15 14 2 0
BITMAP
E38E
E38E
E38E
E79C
E79C
EFB8
EFB8
7DF0
7DF0
79E0
79E0
71C0
71C0
71C0
ENDCHAR

STARTCHAR x
ENCODING 120
SWIDTH 456 0
DWIDTH 11 0
BBX 11 14 1 0
BITMAP
38E0
38E0
38C0
1DC0
1D80
1F00
0F00
1E00
1F00
3700
7700
6380
E380
E380
ENDCHAR

STARTCHAR y
ENCODING 121
SWIDTH 456 0
DWIDTH 11 0
BBX 13 19 0 -5
BITMAP
3838
3838
3870
3870
18E0
1CE0
1DC0
1DC0
1D80
0F80
0F00
0F00
0E00
0E00
1C00
1C00
3800
F800
F000
ENDCHAR

STARTCHAR z
ENCODING 122
SWIDTH 410 0
DWIDTH 11 0
BBX 11 14 1 0
BITMAP
3FE0
3FE0
3FE0
01C0
0380
0700
0E00
0E00
1C00
3800
7000
FF80
FF80
FF80
ENDCHAR

STARTCHAR braceleft
ENCODING 123
SWIDTH 319 0
DWIDTH 7 0
BBX 8 24 1 -5
BITMAP
03
07
0E
0E
1C
1C
1C
1C
1C
38
38
F0
E0
70
70
70
70
70
F0
E0
E0
E0
70
30
ENDCHAR

STARTCHAR bar
ENCODING 124
SWIDTH 230 0
DWIDTH 6 0
BBX 6 24 1 -5
BITMAP
0C
0C
0C
0C
0C
18
18
18
18
18
30
30
30
30
60
60
60
60
60
C0
C0
C0
C0
C0
ENDCHAR

STARTCHAR braceright
ENCODING 125
SWIDTH 319 0
DWIDTH 7 0
BBX 8 24 0 -5
BITMAP
0C
0E
07
07
07
0F
0E
0E
0E
0E
0E
07
0F
1C
1C
38
38
38
38
38
70
70
E0
C0
ENDCHAR

STARTCHAR asciitilde
ENCODING 126
SWIDTH 479 0
DWIDTH 12 0
BBX 10 4 2 5
BITMAP
38C0
7CC0
CF80
C700
ENDCHAR

STARTCHAR exclamdown
ENCODING 161
SWIDTH 273 0
DWIDTH 7 0
BBX 6 19 1 -5
BITMAP
1C
1C
1C
00
00
38
38
38
38
70
70
70
70
70
E0
E0
E0
E0
E0
ENDCHAR

STARTCHAR cent
ENCODING 162
SWIDTH 456 0
DWIDTH 12 0
BBX 12 18 1 -2
BITMAP
00C0
00C0
0780
1FE0
3FE0
39F0
7370
7300
7600
E600
EC00
ECE0
F9E0
7FC0
7F80
1E00
3000
3000
ENDCHAR

STARTCHAR sterling
ENCODING 163
SWIDTH 456 0
DWIDTH 12 0
BBX 14 19 0 0
BITMAP
01F0
07F8
07FC
0F1C
0E1C
1C00
1C00
1C00
0E00
3F80
3F80
0E00
0E00
1C00
1C00
3E30
7FF0
FFF0
63C0
ENDCHAR

STARTCHAR currency
ENCODING 164
SWIDTH 456 0
DWIDTH 12 0
BBX 11 10 2 4
BITMAP
6F60
7FE0
3FC0
71E0
E0E0
E0E0
F1C0
7F80
FFC0
DEC0
ENDCHAR

STARTCHAR yen
ENCODING 165
SWIDTH 456 0
DWIDTH 12 0
BBX 14 19 2 0
BITMAP
701C
701C
7038
3870
3870
38E0
1DC0
1DC0
1F80
7FE0
7FE0
0E00
FFC0
FFC0
0C00
1C00
1C00
1C00
1C00
ENDCHAR

STARTCHAR brokenbar
ENCODING 166
SWIDTH 230 0
DWIDTH 5 0
BBX 6 24 1 -5
BITMAP
0C
0C
0C
0C
0C
18
18
18
18
18
00
00
00
00
60
60
60
60
60
C0
C0
C0
C0
C0
ENDCHAR

STARTCHAR section
ENCODING 167
SWIDTH 456 0
DWIDTH 12 0
BBX 12 24 1 -5
BITMAP
03C0
0FE0
0FF0
1E70
1C70
1C00
0E00
0F00
1F80
3BC0
71E0
70E0
70E0
78E0
3DC0
1F80
0F00
0700
0380
E380
E780
FF00
7F00
3C00
ENDCHAR

STARTCHAR dieresis
ENCODING 168
SWIDTH 273 0
DWIDTH 7 0
BBX 7 3 2 15
BITMAP
EE
EE
EE
ENDCHAR

STARTCHAR copyright
ENCODING 169
SWIDTH 604 0
DWIDTH 19 0
BBX 18 18 2 1
BITMAP
01FC00
07FF00
0F0780
1C0180
30F1C0
73F8C0
6718C0
6600C0
CC00C0
CC00C0
CC0180
CE3180
C7F380
E3C300
600E00
783C00
3FF800
0FE000
ENDCHAR

STARTCHAR ordfeminine
ENCODING 170
SWIDTH 303 0
DWIDTH 8 0
BBX 8 11 1 8
BITMAP
1E
3F
33
0F
3E
66
7E
3B
00
FE
FE
ENDCHAR

STARTCHAR guillemotleft
ENCODING 171
SWIDTH 456 0
DWIDTH 11 0
BBX 10 8 2 3
BITMAP
0CC0
1980
7700
EE00
CC00
6600
3300
1100
ENDCHAR

STARTCHAR logicalnot
ENCODING 172
SWIDTH 479 0
DWIDTH 16 0
BBX 10 7 4 4
BITMAP
FFC0
FFC0
FFC0
0180
0380
0380
0380
ENDCHAR

STARTCHAR hyphen
ENCODING 173
SWIDTH 273 0
DWIDTH 7 0
BBX 5 3 2 6
BITMAP
F8
F8
F8
ENDCHAR

STARTCHAR registered
ENCODING 174
SWIDTH 604 0
DWIDTH 19 0
BBX 18 18 2 1
BITMAP
01FC00
07FF00
0F0780
1C0180
31F1C0
71F8C0
6118C0
6318C0
C3F0C0
C3C0C0
C26180
C66180
C63380
E63300
600E00
783C00
3FF800
0FE000
ENDCHAR

STARTCHAR macron
ENCODING 175
SWIDTH 273 0
DWIDTH 7 0
BBX 7 2 2 16
BITMAP
FE
FE
ENDCHAR

STARTCHAR degree
ENCODING 176
SWIDTH 328 0
DWIDTH 10 0
BBX 7 7 4 12
BITMAP
3C
66
C6
C6
C6
CC
78
ENDCHAR

STARTCHAR plusminus
ENCODING 177
SWIDTH 479 0
DWIDTH 12 0
BBX 11 17 1 0
BITMAP
0700
0700
0700
0700
0700
7FE0
7FE0
7FE0
0E00
0E00
0E00
0E00
0E00
0000
FFC0
FFC0
FFC0
ENDCHAR

STARTCHAR twosuperior
ENCODING 178
SWIDTH 273 0
DWIDTH 7 0
BBX 8 11 1 8
BITMAP
1E
3F
63
63
07
1E
38
60
C0
FE
FE
ENDCHAR

STARTCHAR threesuperior
ENCODING 179
SWIDTH 273 0
DWIDTH 7 0
BBX 8 11 2 8
BITMAP
1E
3F
63
63
06
1C
06
06
C6
FC
78
ENDCHAR

STARTCHAR acute
ENCODING 180
SWIDTH 273 0
DWIDTH 7 0
BBX 5 4 4 15
BITMAP
78
70
E0
C0
ENDCHAR

STARTCHAR mu
ENCODING 181
SWIDTH 501 0
DWIDTH 12 0
BBX 14 19 -1 -5
BITMAP
0E1C
0E1C
0E1C
0E1C
1C3C
1C38
1C38
1C38
3878
3870
3CF0
3FF0
7FB0
7730
7000
7000
E000
E000
E000
ENDCHAR

STARTCHAR paragraph
ENCODING 182
SWIDTH 456 0
DWIDTH 12 0
BBX 12 24 2 -5
BITMAP
0FF0
3FF0
3E60
7E60
7E60
FE60
FCC0
FCC0
FCC0
FCC0
7980
1980
1980
1980
1980
3300
3300
3300
3300
6600
6600
6600
6600
6600
ENDCHAR

STARTCHAR periodcentered
ENCODING 183
SWIDTH 228 0
DWIDTH 6 0
BBX 3 3 3 8
BITMAP
E0
E0
E0
ENDCHAR

STARTCHAR cedilla
ENCODING 184
SWIDTH 273 0
DWIDTH 7 0
BBX 6 5 -1 -5
BITMAP
10
38
1C
DC
78
ENDCHAR

STARTCHAR onesuperior
ENCODING 185
SWIDTH 273 0
DWIDTH 7 0
BBX 4 11 4 8
BITMAP
10
30
F0
20
60
60
60
40
C0
C0
C0
ENDCHAR

STARTCHAR ordmasculine
ENCODING 186
SWIDTH 299 0
DWIDTH 7 0
BBX 8 11 1 8
BITMAP
1E
3F
33
63
63
66
7E
3C
00
FC
FC
ENDCHAR

STARTCHAR guillemotright
ENCODING 187
SWIDTH 456 0
DWIDTH 11 0
BBX 10 8 1 3
BITMAP
2200
3300
1980
0CC0
1DC0
3B80
6600
CC00
ENDCHAR

STARTCHAR onequarter
ENCODING 188
SWIDTH 684 0
DWIDTH 18 0
BBX 14 19 4 0
BITMAP
1030
3030
F060
2060
60C0
6180
6180
4300
C30C
C61C
CC3C
0C2C
1848
1898
3198
6310
63FC
C030
C030
ENDCHAR

STARTCHAR onehalf
ENCODING 189
SWIDTH 684 0
DWIDTH 18 0
BBX 15 19 4 0
BITMAP
1030
3030
F060
2060
60C0
6180
6180
4300
C33C
C67E
CCC6
0CC6
180E
183C
3070
60C0
6180
C1FC
C1FC
ENDCHAR

STARTCHAR threequarters
ENCODING 190
SWIDTH 684 0
DWIDTH 18 0
BBX 16 19 2 0
BITMAP
1E06
3F06
630C
630C
0618
1C30
0630
0660
C663
FCC7
798F
018B
0312
0326
0666
0CC4
0CFF
180C
180C
ENDCHAR

STARTCHAR questiondown
ENCODING 191
SWIDTH 501 0
DWIDTH 11 0
BBX 10 19 0 -5
BITMAP
0380
0380
0380
0000
0000
0700
0700
0700
0E00
1E00
3C00
7800
7000
E1C0
E1C0
E3C0
FF80
7F80
3E00
ENDCHAR

STARTCHAR Agrave
ENCODING 192
SWIDTH 592 0
DWIDTH 15 0
BBX 13 19 1 0
BITMAP
03C0
01C0
00E0
0060
0000
01E0
01E0
03E0
03E0
0760
0E70
0E70
1C70
1FF0
3FF0
7FF8
7038
E038
E038
ENDCHAR

STARTCHAR Aacute
ENCODING 193
SWIDTH 592 0
DWIDTH 15 0
BBX 13 19 1 0
BITMAP
0078
0070
00E0
00C0
0000
01E0
01E0
03E0
03E0
0760
0E70
0E70
1C70
1FF0
3FF0
7FF8
7038
E038
E038
ENDCHAR

STARTCHAR Acircumflex
ENCODING 194
SWIDTH 592 0
DWIDTH 15 0
BBX 13 19 1 0
BITMAP
00E0
01E0
03B0
0730
0000
01E0
01E0
03E0
03E0
0760
0E70
0E70
1C70
1FF0
3FF0
7FF8
7038
E038
E038
ENDCHAR

STARTCHAR Atilde
ENCODING 195
SWIDTH 592 0
DWIDTH 15 0
BBX 13 18 1 0
BITMAP
01C8
03F0
04E0
0000
01E0
01E0
03E0
03E0
0760
0E70
0E70
1C70
1FF0
3FF0
7FF8
7038
E038
E038
ENDCHAR

STARTCHAR Adieresis
ENCODING 196
SWIDTH 592 0
DWIDTH 15 0
BBX 13 18 1 0
BITMAP
03B8
03B8
03B8
0000
01E0
01E0
03E0
03E0
0760
0E70
0E70
1C70
1FF0
3FF0
7FF8
7038
E038
E038
ENDCHAR

STARTCHAR Aring
ENCODING 197
SWIDTH 592 0
DWIDTH 15 0
BBX 13 19 1 0
BITMAP
0070
00D8
0198
01B0
00E0
01E0
01E0
03E0
03E0
0760
0E70
0E70
1C70
1FF0
3FF0
7FF8
7038
E038
E038
ENDCHAR

STARTCHAR AE
ENCODING 198
SWIDTH 820 0
DWIDTH 20 0
BBX 21 19 1 0
BITMAP
00FFF8
00FFF8
01FFF8
01DC00
039C00
03B800
073800
073800
0E3FE0
0E7FE0
1C7FE0
1C7000
3FF000
3FE000
7FE000
70E000
E0FFC0
E0FFC0
E0FFC0
ENDCHAR

STARTCHAR Ccedilla
ENCODING 199
SWIDTH 592 0
DWIDTH 14 0
BBX 14 24 2 -5
BITMAP
03E0
0FF8
1FF8
1E3C
381C
381C
7000
7000
7000
E000
E000
E000
E000
E070
E070
F1E0
7FE0
7FC0
1F00
0800
1C00
0E00
6E00
3C00
ENDCHAR

STARTCHAR Egrave
ENCODING 200
SWIDTH 547 0
DWIDTH 13 0
BBX 13 19 2 0
BITMAP
0780
0380
01C0
00C0
0000
3FF8
3FF8
3FF8
3800
7000
7FE0
7FE0
7FE0
7000
E000
E000
FFC0
FFC0
FFC0
ENDCHAR

STARTCHAR Eacute
ENCODING 201
SWIDTH 547 0
DWIDTH 13 0
BBX 13 19 2 0
BITMAP
01E0
01C0
0380
0300
0000
3FF8
3FF8
3FF8
3800
7000
7FE0
7FE0
7FE0
7000
E000
E000
FFC0
FFC0
FFC0
ENDCHAR

STARTCHAR Ecircumflex
ENCODING 202
SWIDTH 547 0
DWIDTH 13 0
BBX 13 19 2 0
BITMAP
01C0
03C0
0760
0E60
0000
3FF8
3FF8
3FF8
3800
7000
7FE0
7FE0
7FE0
7000
E000
E000
FFC0
FFC0
FFC0
ENDCHAR

STARTCHAR Edieresis
ENCODING 203
SWIDTH 547 0
DWIDTH 13 0
BBX 13 18 2 0
BITMAP
0EE0
0EE0
0EE0
0000
3FF8
3FF8
3FF8
3800
7000
7FE0
7FE0
7FE0
7000
E000
E000
FFC0
FFC0
FFC0
ENDCHAR

STARTCHAR Igrave
ENCODING 204
SWIDTH 228 0
DWIDTH 7 0
BBX 6 19 2 0
BITMAP
78
38
1C
0C
00
38
38
38
38
70
70
70
70
70
E0
E0
E0
E0
E0
ENDCHAR

STARTCHAR Iacute
ENCODING 205
SWIDTH 228 0
DWIDTH 7 0
BBX 7 19 2 0
BITMAP
1E
1C
38
30
00
38
38
38
38
70
70
70
70
70
E0
E0
E0
E0
E0
ENDCHAR

STARTCHAR Icircumflex
ENCODING 206
SWIDTH 228 0
DWIDTH 7 0
BBX 7 19 2 0
BITMAP
1C
3C
76
E6
00
38
38
38
38
70
70
70
70
70
E0
E0
E0
E0
E0
ENDCHAR

STARTCHAR Idieresis
ENCODING 207
SWIDTH 228 0
DWIDTH 7 0
BBX 7 18 2 0
BITMAP
EE
EE
EE
00
38
38
38
38
70
70
70
70
70
E0
E0
E0
E0
E0
ENDCHAR

STARTCHAR Eth
ENCODING 208
SWIDTH 592 0
DWIDTH 16 0
BBX 14 19 2 0
BITMAP
1FE0
1FF8
1FF8
1C3C
1C1C
3C1C
381C
381C
FE1C
FE1C
7038
7038
7038
7070
E070
E1E0
FFE0
FFC0
FF00
ENDCHAR

STARTCHAR Ntilde
ENCODING 209
SWIDTH 592 0
DWIDTH 16 0
BBX 14 18 2 0
BITMAP
01C8
03F0
04E0
0000
3C1C
3C1C
3E1C
3E1C
7E1C
7738
7738
73B8
73B8
E1F0
E1F0
E1F0
E0F0
E0F0
ENDCHAR

STARTCHAR Ograve
ENCODING 210
SWIDTH 638 0
DWIDTH 16 0
BBX 14 19 2 0
BITMAP
0780
0380
01C0
00C0
0000
07E0
1FF8
3FF8
3C3C
701C
701C
E01C
E01C
E038
E038
F0F0
7FF0
7FE0
1F80
ENDCHAR

STARTCHAR Oacute
ENCODING 211
SWIDTH 638 0
DWIDTH 16 0
BBX 14 19 2 0
BITMAP
00F0
00E0
01C0
0180
0000
07E0
1FF8
3FF8
3C3C
701C
701C
E01C
E01C
E038
E038
F0F0
7FF0
7FE0
1F80
ENDCHAR

STARTCHAR Ocircumflex
ENCODING 212
SWIDTH 638 0
DWIDTH 16 0
BBX 14 19 2 0
BITMAP
00E0
01E0
03B0
0730
0000
07E0
1FF8
3FF8
3C3C
701C
701C
E01C
E01C
E038
E038
F0F0
7FF0
7FE0
1F80
ENDCHAR

STARTCHAR Otilde
ENCODING 213
SWIDTH 638 0
DWIDTH 16 0
BBX 14 18 2 0
BITMAP
01C8
03F0
04E0
0000
07E0
1FF8
3FF8
3C3C
701C
701C
E01C
E01C
E038
E038
F0F0
7FF0
7FE0
1F80
ENDCHAR

STARTCHAR Odieresis
ENCODING 214
SWIDTH 638 0
DWIDTH 16 0
BBX 14 18 2 0
BITMAP
0770
0770
0770
0000
07E0
1FF8
3FF8
3C3C
701C
701C
E01C
E01C
E038
E038
F0F0
7FF0
7FE0
1F80
ENDCHAR

STARTCHAR multiply
ENCODING 215
SWIDTH 479 0
DWIDTH 12 0
BBX 13 13 1 0
BITMAP
1010
3838
3C70
1CE0
0FC0
0F80
0700
0F80
1F80
39C0
71E0
E0E0
4040
ENDCHAR

STARTCHAR Oslash
ENCODING 216
SWIDTH 638 0
DWIDTH 16 0
BBX 15 19 2 0
BITMAP
03F6
0FFE
1FFC
1E3E
383E
386E
70EE
70CE
718E
E38E
E31C
E61C
EE1C
EC38
F838
F8F0
7FF0
FFE0
DF80
ENDCHAR

STARTCHAR Ugrave
ENCODING 217
SWIDTH 592 0
DWIDTH 16 0
BBX 14 19 2 0
BITMAP
0780
0380
01C0
00C0
0000
381C
381C
381C
7038
7038
7038
7038
E070
E070
E070
F0F0
7FE0
7FE0
1F80
ENDCHAR

STARTCHAR Uacute
ENCODING 218
SWIDTH 592 0
DWIDTH 16 0
BBX 14 19 2 0
BITMAP
00F0
00E0
01C0
0180
0000
381C
381C
381C
7038
7038
7038
7038
E070
E070
E070
F0F0
7FE0
7FE0
1F80
ENDCHAR

STARTCHAR Ucircumflex
ENCODING 219
SWIDTH 592 0
DWIDTH 16 0
BBX 14 19 2 0
BITMAP
00E0
01E0
03B0
0730
0000
381C
381C
381C
7038
7038
7038
7038
E070
E070
E070
F0F0
7FE0
7FE0
1F80
ENDCHAR

STARTCHAR Udieresis
ENCODING 220
SWIDTH 592 0
DWIDTH 16 0
BBX 14 18 2 0
BITMAP
0770
0770
0770
0000
381C
381C
381C
7038
7038
7038
7038
E070
E070
E070
F0F0
7FE0
7FE0
1F80
ENDCHAR

STARTCHAR Yacute
ENCODING 221
SWIDTH 547 0
DWIDTH 13 0
BBX 12 19 3 0
BITMAP
03C0
0380
0700
0600
0000
E070
E070
E0E0
71C0
7380
3F00
3E00
1C00
1C00
1800
3800
3800
3800
3800
ENDCHAR

STARTCHAR Thorn
ENCODING 222
SWIDTH 547 0
DWIDTH 14 0
BBX 13 19 2 0
BITMAP
1C00
1C00
1C00
1C00
1FC0
3FF0
3FF0
3878
3838
7038
7038
7070
7FF0
7FE0
FF00
E000
E000
E000
E000
ENDCHAR

STARTCHAR germandbls
ENCODING 223
SWIDTH 501 0
DWIDTH 12 0
BBX 12 19 1 0
BITMAP
0780
0FE0
1FE0
1CF0
1C70
3870
38E0
3BE0
3B80
73C0
71E0
70E0
70E0
70E0
E0E0
E1C0
EFC0
EF80
EE00
ENDCHAR

STARTCHAR agrave
ENCODING 224
SWIDTH 456 0
DWIDTH 12 0
BBX 11 19 1 0
BITMAP
0F00
0700
0380
0180
0000
0F80
1FC0
3FE0
38E0
00E0
03E0
1FC0
7DC0
71C0
E380
E380
FF80
FFC0
79C0
ENDCHAR

STARTCHAR aacute
ENCODING 225
SWIDTH 456 0
DWIDTH 12 0
BBX 11 19 1 0
BITMAP
01E0
01C0
0380
0300
0000
0F80
1FC0
3FE0
38E0
00E0
03E0
1FC0
7DC0
71C0
E380
E380
FF80
FFC0
79C0
ENDCHAR

STARTCHAR acircumflex
ENCODING 226
SWIDTH 456 0
DWIDTH 12 0
BBX 11 19 1 0
BITMAP
0380
0780
0EC0
1CC0
0000
0F80
1FC0
3FE0
38E0
00E0
03E0
1FC0
7DC0
71C0
E380
E380
FF80
FFC0
79C0
ENDCHAR

STARTCHAR atilde
ENCODING 227
SWIDTH 456 0
DWIDTH 12 0
BBX 11 18 1 0
BITMAP
0720
0FC0
1380
0000
0F80
1FC0
3FE0
38E0
00E0
03E0
1FC0
7DC0
71C0
E380
E380
FF80
FFC0
79C0
ENDCHAR

STARTCHAR adieresis
ENCODING 228
SWIDTH 456 0
DWIDTH 12 0
BBX 11 18 1 0
BITMAP
0EE0
0EE0
0EE0
0000
0F80
1FC0
3FE0
38E0
00E0
03E0
1FC0
7DC0
71C0
E380
E380
FF80
FFC0
79C0
ENDCHAR

STARTCHAR aring
ENCODING 229
SWIDTH 456 0
DWIDTH 12 0
BBX 11 19 1 0
BITMAP
01C0
0360
0660
06C0
0380
0F80
1FC0
3FE0
38E0
00E0
03E0
1FC0
7DC0
71C0
E380
E380
FF80
FFC0
79C0
ENDCHAR

STARTCHAR ae
ENCODING 230
SWIDTH 729 0
DWIDTH 19 0
BBX 18 14 1 0
BITMAP
0F9E00
1FFF80
3FFF80
38F3C0
00E1C0
03E1C0
1FFFC0
7DFF80
71C000
E3C380
E3E780
FFFF00
FFFE00
7C7800
ENDCHAR

STARTCHAR ccedilla
ENCODING 231
SWIDTH 456 0
DWIDTH 12 0
BBX 12 19 1 -5
BITMAP
0780
1FE0
3FE0
38F0
7070
7000
7000
E000
E000
E0E0
F1E0
7FC0
7F80
1E00
0800
1C00
0E00
6E00
3C00
ENDCHAR

STARTCHAR egrave
ENCODING 232
SWIDTH 456 0
DWIDTH 12 0
BBX 12 19 1 0
BITMAP
0F00
0700
0380
0180
0000
0780
1FE0
3FE0
38F0
7070
7070
7FF0
FFE0
E000
E0E0
F1E0
7FC0
7F80
1E00
ENDCHAR

STARTCHAR eacute
ENCODING 233
SWIDTH 456 0
DWIDTH 12 0
BBX 12 19 1 0
BITMAP
01E0
01C0
0380
0300
0000
0780
1FE0
3FE0
38F0
7070
7070
7FF0
FFE0
E000
E0E0
F1E0
7FC0
7F80
1E00
ENDCHAR

STARTCHAR ecircumflex
ENCODING 234
SWIDTH 456 0
DWIDTH 12 0
BBX 12 19 1 0
BITMAP
01C0
03C0
0760
0E60
0000
0780
1FE0
3FE0
38F0
7070
7070
7FF0
FFE0
E000
E0E0
F1E0
7FC0
7F80
1E00
ENDCHAR

STARTCHAR edieresis
ENCODING 235
SWIDTH 456 0
DWIDTH 12 0
BBX 12 18 1 0
BITMAP
0EE0
0EE0
0EE0
0000
0780
1FE0
3FE0
38F0
7070
7070
7FF0
FFE0
E000
E0E0
F1E0
7FC0
7F80
1E00
ENDCHAR

STARTCHAR igrave
ENCODING 236
SWIDTH 228 0
DWIDTH 7 0
BBX 6 19 2 0
BITMAP
78
38
1C
0C
00
38
38
38
38
38
70
70
70
70
E0
E0
E0
E0
E0
ENDCHAR

STARTCHAR iacute
ENCODING 237
SWIDTH 228 0
DWIDTH 7 0
BBX 7 19 2 0
BITMAP
1E
1C
38
30
00
38
38
38
38
38
70
70
70
70
E0
E0
E0
E0
E0
ENDCHAR

STARTCHAR icircumflex
ENCODING 238
SWIDTH 228 0
DWIDTH 7 0
BBX 7 19 2 0
BITMAP
1C
3C
76
E6
00
38
38
38
38
38
70
70
70
70
E0
E0
E0
E0
E0
ENDCHAR

STARTCHAR idieresis
ENCODING 239
SWIDTH 228 0
DWIDTH 7 0
BBX 7 18 2 0
BITMAP
EE
EE
EE
00
38
38
38
38
38
70
70
70
70
E0
E0
E0
E0
E0
ENDCHAR

STARTCHAR eth
ENCODING 240
SWIDTH 501 0
DWIDTH 12 0
BBX 12 19 1 0
BITMAP
0CC0
0700
0700
1B80
01C0
07C0
1FE0
3FE0
38F0
7070
7070
7070
E0E0
E0E0
E0E0
F1C0
7FC0
7F80
1E00
ENDCHAR

STARTCHAR ntilde
ENCODING 241
SWIDTH 501 0
DWIDTH 12 0
BBX 12 18 1 0
BITMAP
0390
07E0
09C0
0000
33C0
37E0
3FF0
3CF0
3870
7870
70E0
70E0
70E0
F0E0
E1C0
E1C0
E1C0
E1C0
ENDCHAR

STARTCHAR ograve
ENCODING 242
SWIDTH 501 0
DWIDTH 12 0
BBX 12 19 1 0
BITMAP
0F00
0700
0380
0180
0000
0780
1FE0
3FE0
38F0
7070
7070
7070
E0E0
E0E0
E0E0
F1C0
7FC0
7F80
1E00
ENDCHAR

STARTCHAR oacute
ENCODING 243
SWIDTH 501 0
DWIDTH 12 0
BBX 12 19 1 0
BITMAP
01E0
01C0
0380
0300
0000
0780
1FE0
3FE0
38F0
7070
7070
7070
E0E0
E0E0
E0E0
F1C0
7FC0
7F80
1E00
ENDCHAR

STARTCHAR ocircumflex
ENCODING 244
SWIDTH 501 0
DWIDTH 12 0
BBX 12 19 1 0
BITMAP
01C0
03C0
0760
0E60
0000
0780
1FE0
3FE0
38F0
7070
7070
7070
E0E0
E0E0
E0E0
F1C0
7FC0
7F80
1E00
ENDCHAR

STARTCHAR otilde
ENCODING 245
SWIDTH 501 0
DWIDTH 12 0
BBX 12 18 1 0
BITMAP
0390
07E0
09C0
0000
0780
1FE0
3FE0
38F0
7070
7070
7070
E0E0
E0E0
E0E0
F1C0
7FC0
7F80
1E00
ENDCHAR

STARTCHAR odieresis
ENCODING 246
SWIDTH 501 0
DWIDTH 12 0
BBX 12 18 1 0
BITMAP
0EE0
0EE0
0EE0
0000
0780
1FE0
3FE0
38F0
7070
7070
7070
E0E0
E0E0
E0E0
F1C0
7FC0
7F80
1E00
ENDCHAR

STARTCHAR divide
ENCODING 247
SWIDTH 479 0
DWIDTH 12 0
BBX 10 13 2 0
BITMAP
0E00
0E00
0E00
0000
0000
FFC0
FFC0
FFC0
0000
0000
1C00
1C00
1C00
ENDCHAR

STARTCHAR oslash
ENCODING 248
SWIDTH 501 0
DWIDTH 12 0
BBX 12 14 1 0
BITMAP
07B0
1FF0
3FE0
38F0
71F0
7370
7670
E6E0
ECE0
F8E0
F1C0
7FC0
FF80
DE00
ENDCHAR

STARTCHAR ugrave
ENCODING 249
SWIDTH 501 0
DWIDTH 12 0
BBX 12 19 1 0
BITMAP
0F00
0700
0380
0180
0000
3870
3870
3870
3870
70F0
70E0
70E0
70E0
E1E0
E1C0
F3C0
FFC0
7EC0
3CC0
ENDCHAR

STARTCHAR uacute
ENCODING 250
SWIDTH 501 0
DWIDTH 12 0
BBX 12 19 1 0
BITMAP
03C0
0380
0700
0600
0000
3870
3870
3870
3870
70F0
70E0
70E0
70E0
E1E0
E1C0
F3C0
FFC0
7EC0
3CC0
ENDCHAR

STARTCHAR ucircumflex
ENCODING 251
SWIDTH 501 0
DWIDTH 12 0
BBX 12 19 1 0
BITMAP
01C0
03C0
0760
0E60
0000
3870
3870
3870
3870
70F0
70E0
70E0
70E0
E1E0
E1C0
F3C0
FFC0
7EC0
3CC0
ENDCHAR

STARTCHAR udieresis
ENCODING 252
SWIDTH 501 0
DWIDTH 12 0
BBX 12 18 1 0
BITMAP
0EE0
0EE0
0EE0
0000
3870
3870
3870
3870
70F0
70E0
70E0
70E0
E1E0
E1C0
F3C0
FFC0
7EC0
3CC0
ENDCHAR

STARTCHAR yacute
ENCODING 253
SWIDTH 456 0
DWIDTH 11 0
BBX 13 24 0 -5
BITMAP
01E0
01C0
0380
0300
0000
3838
3838
3870
3870
18E0
1CE0
1DC0
1DC0
1D80
0F80
0F00
0F00
0E00
0E00
1C00
1C00
3800
F800
F000
ENDCHAR

STARTCHAR thorn
ENCODING 254
SWIDTH 501 0
DWIDTH 12 0
BBX 13 24 0 -5
BITMAP
0E00
0E00
0E00
0E00
0E00
0DC0
1FF0
1FF0
1C78
1C38
3838
3838
3870
3070
7070
78E0
7FE0
7FC0
7700
E000
E000
E000
E000
E000
ENDCHAR

STARTCHAR ydieresis
ENCODING 255
SWIDTH 456 0
DWIDTH 11 0
BBX 13 23 0 -5
BITMAP
0EE0
0EE0
0EE0
0000
3838
3838
3870
3870
18E0
1CE0
1DC0
1DC0
1D80
0F80
0F00
0F00
0E00
0E00
1C00
1C00
3800
F800
F000
ENDCHAR
ENDFONT
